Patient4_TMGait_0pt4_02_left_13_EMG.mot
version=1
nRows=16
nColumns=33
inDegrees=no
endheader
time	1LAddLong	2LGlutMax	3LGlutMed	4LIliopsoas	5LSemiMemb	6LBicFemLong	7LRecFem	8LVastMed	9LVastLat	10LGasMed	11LTibAnt	12lTibPost	13LPeroneusLong	14LSol	15LExtDigLong	16LFlexDigLong	17RAddLong	18RGlutMax	19RGlutMed	20RIliopsoas	21RSemiMemb	22RBicFemLong	23RRecFem	24RVastMed	25RVastLat	26RGasMed	27RTibAnt	28RTibPost	29RPeroneusLong	30RSol	31RExtDigLong	32RFlexDigLong
18.275	-0.018921	0.054779	-0.028839	0.021667	-0.084229	0.045319	-0.12985	0.009308	-0.00351	-0.17075	0.004883	-0.003815	-0.085754	0.07431	0.023499	0.027161	0.10483	-0.056915	0.11063	-0.066833	0.089722	0.041809	0.080109	0.070648	0.24277	-0.002136	0.056152	0.003967	-0.036469	0.069427	-0.000305	-0.010223
18.276	0	0.052032	-0.030518	0.00946	-0.016022	-0.0737	-0.14374	0.018463	-0.016327	-0.16144	-0.002594	-0.019531	0.11978	0.17136	0.005798	-0.022583	0.043488	-0.080872	0.073547	-0.092621	0.38925	-0.025024	-0.032501	0.22339	0.34454	-0.007324	0.049591	-0.001373	-0.026093	0.038605	0.002594	-0.006409
18.277	0.012817	0.050659	-0.045319	0.013123	0.042419	-0.15793	-0.13306	0.013428	-0.022125	-0.18143	-0.001068	-0.007629	0.11704	0.17166	-0.001221	-0.066223	0.018921	-0.22354	0.095367	-0.093842	0.31784	-0.1413	-0.10956	0.19577	0.3862	-0.007172	0.046997	-0.000763	-0.02533	0.005798	-0.001984	0.001678
18.278	0.010223	0.043945	-0.029755	0.002747	0.079803	-0.15701	-0.14145	0.005341	-0.002747	-0.16754	0.007935	0.053558	0.012817	-0.024872	0.000763	-0.017548	0.004578	-0.23666	0.067444	-0.070801	0.044098	-0.16327	-0.10422	0.18662	0.37003	-0.00824	0.076141	-0.004272	-0.024414	0.007935	-0.003204	0.002747
18.279	0.00824	0.08255	-0.013885	0.00946	0.053101	-0.093231	-0.1091	0.00885	0.001984	-0.16708	0.023804	0.054474	0.000916	0.15411	0.039063	0.13153	0.009613	-0.22949	0.030823	0.001678	-0.24582	-0.21362	-0.177	0.21149	0.46295	-0.005646	0.079193	0.001068	-0.062714	0.012665	-0.000916	-0.011139
18.28	0.00885	0.080261	-0.012207	0.01358	0.072174	0.003662	-0.11993	-0.002289	0.011749	-0.066223	0.007172	-0.11749	-0.018921	-0.002899	0.041199	-0.47546	0.036011	-0.25665	0.031281	-0.025482	-0.27084	-0.24811	-0.14206	0.15182	0.35095	-0.006409	0.08728	-0.001831	-0.054321	-0.00061	-0.001526	-0.00885
18.281	0.001678	0.070648	-0.012665	0.0177	0.056458	0.12375	-0.13412	0.014191	0.006714	-0.031586	0.000458	0.056152	0.08667	-0.17395	0.043335	0.24582	0.036316	-0.30685	-0.003204	0.009766	0.11734	-0.30212	-0.12161	0.13351	0.099792	0.009003	0.10544	-0.00473	-0.014191	-0.023193	-0.002441	0.012665
18.282	-0.004272	0.07019	0.003967	0.00351	0.009766	0.19012	-0.12604	0.01236	0.003357	-0.22293	-0.013275	0.082245	0.12482	0.16464	0.001221	0.18784	0.021667	-0.32501	-0.02594	0.035706	0.31845	-0.25009	-0.16724	0.046539	-0.03952	-0.000458	0.099487	-0.001068	-0.009308	0.032959	0.002289	0.002899
18.283	-0.00946	0.078735	0.006104	-0.002441	-0.041504	0.13901	-0.12054	0.009766	0.012054	0.064545	-0.001678	0.038757	0.10498	-0.14481	-0.033264	0.049591	0.021667	-0.29663	-0.042419	-0.064392	0.29327	-0.13321	-0.050354	-0.063629	-0.22766	-0.000916	0.11063	-0.004578	-0.03006	-0.016937	0.003204	-0.008545
18.284	-0.006409	0.080261	-0.001831	0.008698	-0.079651	0.069122	-0.121	0.014954	0.009766	0.22629	0.001068	-0.035553	0.03952	-0.43427	-0.018616	0.026855	-0.002899	-0.26901	0.006256	-0.12299	0.20584	-0.041962	-0.063171	-0.14084	-0.29297	-0.000763	0.11597	-0.001373	-0.055695	-0.067902	-0.006409	-0.002747
18.285	-0.004578	0.053406	0	-0.000153	-0.07843	0.017548	-0.1236	0.010376	0.019836	0.36133	-0.013733	-0.050659	-0.02121	-0.20172	-0.001831	-0.019989	-0.005341	-0.34943	0.033112	-0.224	0.089722	-0.071716	-0.068054	-0.16419	-0.16632	-0.007019	0.045319	-0.001678	-0.036316	-0.086212	-0.003357	-0.007172
18.286	-0.000458	0.08194	-0.028534	0.012054	-0.034485	-0.004578	-0.12222	0.01236	0.023499	0.44968	-0.005798	-0.026703	-0.040588	-0.098572	-0.024414	-0.49988	0.010529	-0.34286	0.02121	-0.11963	0.036774	-0.11078	0.005341	-0.099792	-0.12756	0.001068	-0.0914	-0.003662	-0.068359	-0.093536	-0.001678	-0.00824
18.287	0.000458	0.081482	-0.006714	0.010071	-0.002594	0.00412	-0.11917	0.00824	0.011292	0.38223	0.003204	-0.041809	-0.033264	-0.21011	0.004578	0.005646	0.011597	-0.34409	0.023499	-0.02182	-0.037079	-0.1001	0.00061	-0.071259	-0.13733	-0.001831	-0.096588	0.002899	-0.047607	-0.036163	-0.001678	-0.009308
18.288	0.005188	0.073242	-0.000458	-0.002441	0.000458	-0.020599	-0.080872	0.016022	-0.00351	0.46845	0.003204	-0.015869	-0.022583	-0.2417	0.00351	-0.055542	0.013275	-0.23956	0.036774	-0.029602	-0.14404	-0.044556	-0.070953	0.00412	-0.10162	-0.00412	-0.040588	0.001221	-0.054932	-0.052795	0.001831	-0.006104
18.289	0.005188	0.063782	-0.008087	0.00824	0.031128	-0.12207	-0.075226	0.012665	0.001831	0.46951	0.003662	-0.023651	-0.062408	-0.17822	0.004272	0.30579	0.003357	-0.1831	0.041199	0.11948	-0.25436	-0.015564	-0.1413	-0.001984	-0.010834	-0.001526	-0.053711	-0.000916	0.042114	-0.065765	0.000916	-0.003052
18.29	-0.008087	0.072479	-0.027924	0.01709	-0.009155	-0.11307	-0.084991	0.009766	-0.006714	0.49942	0.002289	-0.061951	-0.096588	0.007935	0.001831	-0.11231	-0.010681	-0.088959	0.048676	0.28534	-0.20538	-0.007324	-0.25482	0.11322	0.44678	-0.002747	-0.072021	0.012665	0.112	-0.13001	-0.00061	-0.011292
